# xmcd
#
# Track frame offsets:
#        150
#        20081
#        36201
#        55889
#        78520
#        95802
#        117486
#        137970
#        159050
#        178338
#        201562
#        225452
#        250876
#        267072
#
# Disc length: 3838 seconds
#
# Revision: 0
# Processed by: cddbd v1.5.1PL0 Copyright (c) Steve Scherf et al.
# Submitted via: ExactAudioCopy v0.95a5
#
DISCID=c70efc0e
DTITLE=Her Space Holiday - The Young Machines
DYEAR=2004
DGENRE=Pop
TTITLE0=The Young Machines
TTITLE1=Something to Do with My Hands
TTITLE2=Tech Romance
TTITLE3=Sleepy California
TTITLE4=Japanese Gum
TTITLE5=Meet The Pressure
TTITLE6=My Girlfriend's Boyfriend
TTITLE7=The Luxury of Loneliness
TTITLE8=Girl Problem
TTITLE9=From South Carolina
TTITLE10=Far From Home
TTITLE11=Microfilmed
TTITLE12=Work Week
TTITLE13=We are More Afraid of You
EXTD=
EXTT0=
EXTT1=
EXTT2=
EXTT3=
EXTT4=
EXTT5=
EXTT6=
EXTT7=
EXTT8=
EXTT9=
EXTT10=
EXTT11=
EXTT12=
EXTT13=
PLAYORDER=
